<?xml version="1.0" encoding="UTF-8"?>
<svg width="79px" height="14px" viewBox="0 0 79 14" version="1.1" xmlns="http://www.w3.org/2000/svg" xmlns:xlink="http://www.w3.org/1999/xlink">
    <!-- Generator: Sketch 50.2 (55047) - http://www.bohemiancoding.com/sketch -->
    <title>4.5stars </title>
    <desc>Created with Sketch.</desc>
    <defs></defs>
    <g id="4.5stars-" stroke="none" stroke-width="1" fill="none" fill-rule="evenodd">
        <polygon id="Fill-1-Copy" fill="#FFC900" points="7.4916857 0 5.18030951 4.60682715 0 5.35441343 3.74842028 8.93076179 2.85313616 14 7.4940137 11.6023433 12.1320644 13.9982064 11.244762 8.93744686 15 5.3429999 9.81603219 4.60976206"></polygon>
        <polygon id="Fill-2-Copy" fill="#FFC900" points="23.4916857 0 21.1803095 4.60682715 16 5.35441343 19.7484203 8.93076179 18.8531362 14 23.4940137 11.6023433 28.1320644 13.9982064 27.244762 8.93744686 31 5.3429999 25.8160322 4.60976206"></polygon>
        <polygon id="Fill-3-Copy" fill="#FFC900" points="39.4916857 0 37.1803095 4.60682715 32 5.35441343 35.7484203 8.93076179 34.8531362 14 39.4940137 11.6023433 44.1320644 13.9982064 43.244762 8.93744686 47 5.3429999 41.8161985 4.60976206"></polygon>
        <polygon id="Fill-4-Copy-2" fill="#FFC900" points="53.1803095 4.60699021 48 5.35457648 51.7485866 8.93092485 50.8533024 14 55.49418 11.6025063 60.1322307 13.9982064 59.2449283 8.93760991 63 5.3429999 57.8161985 4.60976206 55.491852 0"></polygon>
        <path d="M65.0891024,5.70258452 L68.2875589,8.75407986 L67.5213944,13.0920827 L71.494164,11.0397359 L75.4655524,13.0910838 L74.7063385,8.76102102 L77.9104183,5.69385796 L73.487405,5.06823203 L71.4929513,1.11273015 L69.510127,5.06457298 L65.0891024,5.70258452 Z" id="Fill-4-Copy-4" stroke="#FFC900"></path>
        <path d="M71.5,0.0161595608 L71.5,11.6055125 L71.49418,11.6025063 L66.8533024,14 L67.7485866,8.93092485 L64,5.35457648 L69.1803095,4.60699021 L71.491852,0 L71.5,0.0161595608 Z" id="Combined-Shape-Copy-3" fill="#FFC900"></path>
    </g>
</svg>