<?xml version="1.0" encoding="UTF-8"?>
<svg width="79px" height="14px" viewBox="0 0 79 14" version="1.1" xmlns="http://www.w3.org/2000/svg" xmlns:xlink="http://www.w3.org/1999/xlink">
    <!-- Generator: Sketch 50.2 (55047) - http://www.bohemiancoding.com/sketch -->
    <title> 5stars</title>
    <desc>Created with Sketch.</desc>
    <defs></defs>
    <g id="-5stars" stroke="none" stroke-width="1" fill="none" fill-rule="evenodd">
        <polygon id="Fill-1" fill="#FFC900" points="7.4916857 0 5.18030951 4.60682715 0 5.35441343 3.74842028 8.93076179 2.85313616 14 7.4940137 11.6023433 12.1320644 13.9982064 11.244762 8.93744686 15 5.3429999 9.81603219 4.60976206"></polygon>
        <polygon id="Fill-2" fill="#FFC900" points="23.4916857 0 21.1803095 4.60682715 16 5.35441343 19.7484203 8.93076179 18.8531362 14 23.4940137 11.6023433 28.1320644 13.9982064 27.244762 8.93744686 31 5.3429999 25.8160322 4.60976206"></polygon>
        <polygon id="Fill-3" fill="#FFC900" points="39.4916857 0 37.1803095 4.60682715 32 5.35441343 35.7484203 8.93076179 34.8531362 14 39.4940137 11.6023433 44.1320644 13.9982064 43.244762 8.93744686 47 5.3429999 41.8161985 4.60976206"></polygon>
        <polygon id="Fill-4" fill="#FFC900" points="53.1803095 4.60699021 48 5.35457648 51.7485866 8.93092485 50.8533024 14 55.49418 11.6025063 60.1322307 13.9982064 59.2449283 8.93760991 63 5.3429999 57.8161985 4.60976206 55.491852 0"></polygon>
        <polygon id="Fill-4-Copy" fill="#FFC900" points="69.1803095 4.60699021 64 5.35457648 67.7485866 8.93092485 66.8533024 14 71.49418 11.6025063 76.1322307 13.9982064 75.2449283 8.93760991 79 5.3429999 73.8161985 4.60976206 71.491852 0"></polygon>
    </g>
</svg>