<?xml version="1.0" encoding="UTF-8"?>
<svg width="15px" height="15px" viewBox="0 0 15 15" version="1.1" xmlns="http://www.w3.org/2000/svg" xmlns:xlink="http://www.w3.org/1999/xlink">
    <!-- Generator: Sketch 47.1 (45422) - http://www.bohemiancoding.com/sketch -->
    <title>Group 9 Copy 10</title>
    <desc>Created with Sketch.</desc>
    <defs></defs>
    <g id="Page-1" stroke="none" stroke-width="1" fill="none" fill-rule="evenodd">
        <g id="Group-9-Copy-10" fill="#1E47BA">
            <path d="M3.01819095,8.37875653 C2.99435346,8.90980982 2.99127658,9.53323316 3.02511168,10.1581277 C3.05817786,10.7837486 3.12892259,11.4100957 3.23580843,12.0146167 C3.34346594,12.6191377 3.48802245,13.2032852 3.60491652,13.6128421 C3.72180075,14.0216726 3.80870356,14.2559127 3.89636427,14.4901527 C4.28854409,14.4355929 4.68225939,14.3824894 5.06290334,14.3519347 C5.44201181,14.3213818 5.80958441,14.3126513 6.21174491,14.3286559 C6.61392509,14.34466 7.05222865,14.3853983 7.47594506,14.4595979 C7.90040952,14.5337994 8.31028684,14.6421908 8.68476915,14.7265772 C9.0600192,14.8102354 9.39991362,14.8706148 9.80055831,14.920815 C10.201203,14.9717377 10.6625783,15.0124755 11.1401156,14.9964709 C11.6168851,14.9811943 12.1090292,14.9084475 12.4166193,14.8509788 C12.7249771,14.7935101 12.8480132,14.7527723 12.9764431,14.6196439 C13.1040935,14.4857912 13.237122,14.260276 13.3071049,14.0434857 C13.3778516,13.8259692 13.3870783,13.6193843 13.3447854,13.4557068 C13.30403,13.2920275 13.2109833,13.1727304 13.1187141,13.0534129 C13.3163395,13.0148577 13.5131972,12.9770288 13.6869831,12.9028292 C13.860771,12.8293559 14.0130187,12.7195082 14.1283773,12.5849347 C14.2437241,12.451082 14.3244652,12.2924979 14.3690752,12.09826 C14.4144449,11.9032959 14.4252111,11.6726874 14.3959895,11.4980968 C14.366768,11.3242344 14.2990982,11.2056599 14.218357,11.0987267 C14.1376139,10.9910635 14.0445691,10.8957733 13.949981,10.7990083 C14.126076,10.6906168 14.302179,10.5814917 14.453661,10.4716533 C14.6051488,10.3625337 14.7320374,10.2519578 14.8243045,10.1050038 C14.9158119,9.95805717 14.9727175,9.77619619 14.9919406,9.61542388 C15.0119335,9.4546553 14.9934787,9.31497913 14.9504155,9.18621975 C14.9073529,9.05745851 14.8396831,8.93888777 14.7228087,8.80720458 C14.6066942,8.67553442 14.442129,8.53003856 14.3360228,8.44565778 C14.229135,8.36054511 14.1822277,8.33508375 14.1345586,8.31035055 C14.2868162,8.17795224 14.4390777,8.0455502 14.567488,7.91170675 C14.6959061,7.77858214 14.7989532,7.64400121 14.8550773,7.47231583 C14.911981,7.30136234 14.9212097,7.09404558 14.903522,6.92018131 C14.8866045,6.7463189 14.8443112,6.60591829 14.7766414,6.48807199 C14.7082018,6.36949566 14.6151571,6.27347923 14.4974972,6.17671415 C14.3790755,6.07923396 14.2368183,5.98102374 14.1053174,5.9184691 C13.9745921,5.85518072 13.8531034,5.82680859 13.5977987,5.79480125 C13.342494,5.76133759 12.9534049,5.72278241 12.4897067,5.71550826 C12.0260085,5.70896098 11.4877406,5.73442178 11.1332393,5.74315224 C10.7779703,5.75188176 10.6080231,5.74533466 10.4373082,5.73878756 C10.5680335,5.53583418 10.6995226,5.33358847 10.8933092,5.08625649 C11.0878597,4.8403771 11.3447038,4.55011912 11.5530973,4.25768225 C11.7614908,3.96524537 11.9206699,3.67208221 12.0329379,3.35271649 C12.14444,3.03409568 12.2090329,2.68927233 12.234402,2.40191954 C12.2597789,2.11384045 12.2451675,1.88177932 12.1959537,1.62643945 C12.1452018,1.36964699 12.0606141,1.08957579 11.9483462,0.86552255 C11.8360763,0.641469312 11.6961321,0.474141713 11.5561663,0.341024553 C11.4154446,0.208626241 11.2739512,0.110416021 11.1047717,0.0573218659 C10.9355982,0.00421653686 10.7410379,-0.00378390127 10.5572713,0.00130762524 C10.3742547,0.00567229629 10.2020022,0.0216774558 10.0535913,0.0733264668 C9.90441057,0.124975478 9.77830553,0.212270761 9.68908964,0.301029812 C9.59911979,0.389779551 9.54682849,0.479985608 9.52837308,0.606558648 C9.5106866,0.733137274 9.52760416,0.896090332 9.50607305,1.1143332 C9.48454076,1.33257606 9.42379246,1.60754456 9.33997441,1.83524791 C9.2569241,2.06222496 9.15080601,2.24335219 8.99470577,2.45649236 C8.83860356,2.67035882 8.63252706,2.91625683 8.31493662,3.203591 C7.99657842,3.49167009 7.56672006,3.82120397 7.18684385,4.12965661 C6.80696764,4.43809064 6.47630584,4.72544343 6.23409219,4.95895715 C5.99185885,5.19174457 5.83730591,5.36996662 5.66812644,5.59476478 C5.49972063,5.81954431 5.31669616,6.08942874 5.13676827,6.30186123 C4.95682856,6.5142751 4.77842829,6.66851073 4.5546602,6.76380459 C4.33012436,6.85910218 4.05944509,6.89474659 3.81414077,6.91948165 L3.12820997,6.97404143 C3.08437765,7.41125346 3.04054729,7.84772056 3.01670783,8.37877385 L3.01819095,8.37875653 Z" id="Shape" fill-rule="nonzero"></path>
            <rect id="Rectangle-2" x="0" y="7" width="2" height="7"></rect>
        </g>
    </g>
</svg>